<svg id="visual" viewBox="0 0 900 600" width="900" height="600" xmlns="http://www.w3.org/2000/svg" xmlns:xlink="http://www.w3.org/1999/xlink" version="1.1"><rect x="0" y="0" width="900" height="600" fill="#001220"></rect><defs><linearGradient id="grad1_0" x1="33.3%" y1="100%" x2="100%" y2="0%"><stop offset="20%" stop-color="#fbae3c" stop-opacity="1"></stop><stop offset="80%" stop-color="#fbae3c" stop-opacity="1"></stop></linearGradient></defs><defs><linearGradient id="grad1_1" x1="33.3%" y1="100%" x2="100%" y2="0%"><stop offset="20%" stop-color="#fbae3c" stop-opacity="1"></stop><stop offset="80%" stop-color="#f48350" stop-opacity="1"></stop></linearGradient></defs><defs><linearGradient id="grad1_2" x1="33.3%" y1="100%" x2="100%" y2="0%"><stop offset="20%" stop-color="#d96162" stop-opacity="1"></stop><stop offset="80%" stop-color="#f48350" stop-opacity="1"></stop></linearGradient></defs><defs><linearGradient id="grad1_3" x1="33.3%" y1="100%" x2="100%" y2="0%"><stop offset="20%" stop-color="#d96162" stop-opacity="1"></stop><stop offset="80%" stop-color="#af4b6d" stop-opacity="1"></stop></linearGradient></defs><defs><linearGradient id="grad1_4" x1="33.3%" y1="100%" x2="100%" y2="0%"><stop offset="20%" stop-color="#7c3e6b" stop-opacity="1"></stop><stop offset="80%" stop-color="#af4b6d" stop-opacity="1"></stop></linearGradient></defs><defs><linearGradient id="grad1_5" x1="33.3%" y1="100%" x2="100%" y2="0%"><stop offset="20%" stop-color="#7c3e6b" stop-opacity="1"></stop><stop offset="80%" stop-color="#49335c" stop-opacity="1"></stop></linearGradient></defs><defs><linearGradient id="grad1_6" x1="33.3%" y1="100%" x2="100%" y2="0%"><stop offset="20%" stop-color="#1d2540" stop-opacity="1"></stop><stop offset="80%" stop-color="#49335c" stop-opacity="1"></stop></linearGradient></defs><defs><linearGradient id="grad1_7" x1="33.3%" y1="100%" x2="100%" y2="0%"><stop offset="20%" stop-color="#1d2540" stop-opacity="1"></stop><stop offset="80%" stop-color="#001220" stop-opacity="1"></stop></linearGradient></defs><defs><linearGradient id="grad2_0" x1="0%" y1="100%" x2="66.7%" y2="0%"><stop offset="20%" stop-color="#fbae3c" stop-opacity="1"></stop><stop offset="80%" stop-color="#fbae3c" stop-opacity="1"></stop></linearGradient></defs><defs><linearGradient id="grad2_1" x1="0%" y1="100%" x2="66.7%" y2="0%"><stop offset="20%" stop-color="#f48350" stop-opacity="1"></stop><stop offset="80%" stop-color="#fbae3c" stop-opacity="1"></stop></linearGradient></defs><defs><linearGradient id="grad2_2" x1="0%" y1="100%" x2="66.7%" y2="0%"><stop offset="20%" stop-color="#f48350" stop-opacity="1"></stop><stop offset="80%" stop-color="#d96162" stop-opacity="1"></stop></linearGradient></defs><defs><linearGradient id="grad2_3" x1="0%" y1="100%" x2="66.7%" y2="0%"><stop offset="20%" stop-color="#af4b6d" stop-opacity="1"></stop><stop offset="80%" stop-color="#d96162" stop-opacity="1"></stop></linearGradient></defs><defs><linearGradient id="grad2_4" x1="0%" y1="100%" x2="66.7%" y2="0%"><stop offset="20%" stop-color="#af4b6d" stop-opacity="1"></stop><stop offset="80%" stop-color="#7c3e6b" stop-opacity="1"></stop></linearGradient></defs><defs><linearGradient id="grad2_5" x1="0%" y1="100%" x2="66.7%" y2="0%"><stop offset="20%" stop-color="#49335c" stop-opacity="1"></stop><stop offset="80%" stop-color="#7c3e6b" stop-opacity="1"></stop></linearGradient></defs><defs><linearGradient id="grad2_6" x1="0%" y1="100%" x2="66.7%" y2="0%"><stop offset="20%" stop-color="#49335c" stop-opacity="1"></stop><stop offset="80%" stop-color="#1d2540" stop-opacity="1"></stop></linearGradient></defs><defs><linearGradient id="grad2_7" x1="0%" y1="100%" x2="66.7%" y2="0%"><stop offset="20%" stop-color="#001220" stop-opacity="1"></stop><stop offset="80%" stop-color="#1d2540" stop-opacity="1"></stop></linearGradient></defs><g transform="translate(900, 600)"><path d="M-486.7 0C-475.9 -88.3 -465 -176.6 -421.5 -243.4C-378.1 -310.1 -302.2 -355.3 -226.5 -392.3C-150.8 -429.3 -75.4 -458 0 -486.7L0 0Z" fill="#0c1c30"></path><path d="M-425.9 0C-416.4 -77.3 -406.8 -154.5 -368.8 -213C-330.9 -271.4 -264.4 -310.9 -198.2 -343.3C-132 -375.6 -66 -400.8 0 -425.9L0 0Z" fill="#312c4f"></path><path d="M-365.1 0C-356.9 -66.2 -348.7 -132.5 -316.2 -182.5C-283.6 -232.6 -226.6 -266.5 -169.9 -294.2C-113.1 -322 -56.6 -343.5 0 -365.1L0 0Z" fill="#623965"></path><path d="M-304.2 0C-297.4 -55.2 -290.6 -110.4 -263.5 -152.1C-236.3 -193.8 -188.9 -222.1 -141.6 -245.2C-94.3 -268.3 -47.1 -286.3 0 -304.2L0 0Z" fill="#96446e"></path><path d="M-243.4 0C-237.9 -44.2 -232.5 -88.3 -210.8 -121.7C-189.1 -155.1 -151.1 -177.7 -113.3 -196.2C-75.4 -214.6 -37.7 -229 0 -243.4L0 0Z" fill="#c55469"></path><path d="M-182.5 0C-178.4 -33.1 -174.4 -66.2 -158.1 -91.3C-141.8 -116.3 -113.3 -133.3 -84.9 -147.1C-56.6 -161 -28.3 -171.8 0 -182.5L0 0Z" fill="#e9705a"></path><path d="M-121.7 0C-119 -22.1 -116.2 -44.2 -105.4 -60.8C-94.5 -77.5 -75.5 -88.8 -56.6 -98.1C-37.7 -107.3 -18.9 -114.5 0 -121.7L0 0Z" fill="#fa9845"></path><path d="M-60.8 0C-59.5 -11 -58.1 -22.1 -52.7 -30.4C-47.3 -38.8 -37.8 -44.4 -28.3 -49C-18.9 -53.7 -9.4 -57.3 0 -60.8L0 0Z" fill="#fbae3c"></path></g><g transform="translate(0, 0)"><path d="M486.7 0C462.2 77.8 437.6 155.6 400.1 231C362.6 306.4 312.2 379.3 243.4 421.5C174.5 463.8 87.3 475.3 0 486.7L0 0Z" fill="#0c1c30"></path><path d="M425.9 0C404.4 68.1 382.9 136.2 350.1 202.1C317.3 268.1 273.2 331.9 213 368.8C152.7 405.8 76.4 415.8 0 425.9L0 0Z" fill="#312c4f"></path><path d="M365.1 0C346.6 58.4 328.2 116.7 300.1 173.2C272 229.8 234.2 284.5 182.5 316.2C130.9 347.8 65.5 356.4 0 365.1L0 0Z" fill="#623965"></path><path d="M304.2 0C288.9 48.6 273.5 97.3 250.1 144.4C226.6 191.5 195.1 237.1 152.1 263.5C109.1 289.8 54.5 297 0 304.2L0 0Z" fill="#96446e"></path><path d="M243.4 0C231.1 38.9 218.8 77.8 200.1 115.5C181.3 153.2 156.1 189.7 121.7 210.8C87.3 231.9 43.6 237.6 0 243.4L0 0Z" fill="#c55469"></path><path d="M182.5 0C173.3 29.2 164.1 58.4 150 86.6C136 114.9 117.1 142.2 91.3 158.1C65.5 173.9 32.7 178.2 0 182.5L0 0Z" fill="#e9705a"></path><path d="M121.7 0C115.5 19.5 109.4 38.9 100 57.7C90.7 76.6 78.1 94.8 60.8 105.4C43.6 115.9 21.8 118.8 0 121.7L0 0Z" fill="#fa9845"></path><path d="M60.8 0C57.8 9.7 54.7 19.5 50 28.9C45.3 38.3 39 47.4 30.4 52.7C21.8 58 10.9 59.4 0 60.8L0 0Z" fill="#fbae3c"></path></g></svg>