<svg id="visual" viewBox="0 0 900 600" width="900" height="600" xmlns="http://www.w3.org/2000/svg" xmlns:xlink="http://www.w3.org/1999/xlink" version="1.1"><rect x="0" y="0" width="900" height="600" fill="#001220"></rect><g transform="translate(479.79562457750876 294.65756834183856)"><path d="M166.9 -267.4C220.4 -258.1 270.9 -221.8 242.5 -172.7C214.2 -123.7 107.1 -61.8 83.7 -13.5C60.3 34.8 120.7 69.7 148.8 118.5C177 167.2 173 230 142.8 259.9C112.7 289.8 56.3 286.9 19.5 253.1C-17.3 219.4 -34.7 154.7 -57.3 120.5C-80 86.2 -108 82.4 -161.8 67.3C-215.6 52.3 -295.3 26.2 -308.3 -7.5C-321.3 -41.2 -267.6 -82.3 -217.2 -103.3C-166.8 -124.2 -119.6 -124.9 -84 -144.5C-48.3 -164 -24.2 -202.5 16.2 -230.7C56.7 -258.8 113.3 -276.6 166.9 -267.4" fill="#FBAE3C"></path></g></svg>