<?xml version="1.0" standalone="no"?>
<svg viewBox="0 0 200 200" xmlns="http://www.w3.org/2000/svg">
  <path fill="#8A3FFC" d="M32.6,-61.3C41,-51.7,45.6,-40.3,52,-29.8C58.3,-19.3,66.4,-9.7,71.1,2.7C75.8,15.1,77.1,30.2,68.8,37.4C60.6,44.6,42.8,43.9,29.7,50C16.7,56,8.3,68.7,-3.8,75.3C-16,81.9,-32,82.5,-45.4,76.7C-58.9,70.9,-69.8,58.8,-75.4,44.9C-81,31.1,-81.2,15.5,-78.4,1.6C-75.5,-12.3,-69.6,-24.5,-62.8,-36.2C-56,-48,-48.3,-59.2,-37.7,-67.5C-27.1,-75.8,-13.5,-81.2,-0.7,-79.9C12.1,-78.7,24.2,-70.9,32.6,-61.3Z" transform="translate(100 100)" />
</svg>
