<svg id="visual" viewBox="0 0 900 600" width="900" height="600" xmlns="http://www.w3.org/2000/svg" xmlns:xlink="http://www.w3.org/1999/xlink" version="1.1"><rect x="0" y="0" width="900" height="600" fill="#001220"></rect><defs><linearGradient id="grad1_0" x1="33.3%" y1="100%" x2="100%" y2="0%"><stop offset="20%" stop-color="#001220" stop-opacity="1"></stop><stop offset="80%" stop-color="#001220" stop-opacity="1"></stop></linearGradient></defs><defs><linearGradient id="grad2_0" x1="0%" y1="100%" x2="66.7%" y2="0%"><stop offset="20%" stop-color="#001220" stop-opacity="1"></stop><stop offset="80%" stop-color="#001220" stop-opacity="1"></stop></linearGradient></defs><g transform="translate(900, 600)"><path d="M-405.6 0C-382.2 -30.9 -358.8 -61.8 -345.8 -92.7C-332.8 -123.5 -330.2 -154.4 -320.4 -185C-310.7 -215.6 -293.8 -245.8 -272.9 -272.9C-252.1 -300.1 -227.3 -324.1 -199 -344.7C-170.7 -365.2 -138.7 -382.2 -105 -391.8C-71.2 -401.4 -35.6 -403.5 0 -405.6L0 0Z" fill="#FBAE3C"></path></g><g transform="translate(0, 0)"><path d="M405.6 0C406.3 37.1 407 74.1 391.8 105C376.6 135.9 345.6 160.6 321.3 185.5C297 210.4 279.6 235.6 258.8 258.8C238 282 214 303.1 188.5 326.5C163 349.9 136 375.7 104.3 389.3C72.6 402.8 36.3 404.2 0 405.6L0 0Z" fill="#FBAE3C"></path></g></svg>