<?xml version="1.0" standalone="no"?>
<svg viewBox="0 0 200 200" xmlns="http://www.w3.org/2000/svg">
  <path fill="#8A3FFC" d="M28.6,-53C35.5,-45.5,38.5,-34.7,44.6,-25.4C50.6,-16,59.6,-8,61.1,0.9C62.5,9.7,56.5,19.4,51.8,31.1C47.1,42.7,43.7,56.3,35.3,63.8C26.9,71.4,13.4,73,-1.3,75.3C-16.1,77.6,-32.2,80.6,-44.1,75C-56,69.5,-63.7,55.3,-63.4,41.4C-63.1,27.5,-54.9,13.7,-52.8,1.2C-50.7,-11.3,-54.7,-22.6,-52.7,-32.6C-50.7,-42.5,-42.6,-51.2,-32.8,-57C-23,-62.8,-11.5,-65.9,-0.3,-65.3C10.8,-64.7,21.6,-60.5,28.6,-53Z" transform="translate(100 100)" />
</svg>
