<svg id="visual" viewBox="0 0 900 600" width="900" height="600" xmlns="http://www.w3.org/2000/svg" xmlns:xlink="http://www.w3.org/1999/xlink" version="1.1"><rect x="0" y="0" width="900" height="600" fill="#001220"></rect><defs><linearGradient id="grad1_0" x1="33.3%" y1="100%" x2="100%" y2="0%"><stop offset="20%" stop-color="#fbae3c" stop-opacity="1"></stop><stop offset="80%" stop-color="#fbae3c" stop-opacity="1"></stop></linearGradient></defs><defs><linearGradient id="grad1_1" x1="33.3%" y1="100%" x2="100%" y2="0%"><stop offset="20%" stop-color="#fbae3c" stop-opacity="1"></stop><stop offset="80%" stop-color="#e1685e" stop-opacity="1"></stop></linearGradient></defs><defs><linearGradient id="grad1_2" x1="33.3%" y1="100%" x2="100%" y2="0%"><stop offset="20%" stop-color="#96446e" stop-opacity="1"></stop><stop offset="80%" stop-color="#e1685e" stop-opacity="1"></stop></linearGradient></defs><defs><linearGradient id="grad1_3" x1="33.3%" y1="100%" x2="100%" y2="0%"><stop offset="20%" stop-color="#96446e" stop-opacity="1"></stop><stop offset="80%" stop-color="#3d3056" stop-opacity="1"></stop></linearGradient></defs><defs><linearGradient id="grad1_4" x1="33.3%" y1="100%" x2="100%" y2="0%"><stop offset="20%" stop-color="#001220" stop-opacity="1"></stop><stop offset="80%" stop-color="#3d3056" stop-opacity="1"></stop></linearGradient></defs><defs><linearGradient id="grad2_0" x1="0%" y1="100%" x2="66.7%" y2="0%"><stop offset="20%" stop-color="#fbae3c" stop-opacity="1"></stop><stop offset="80%" stop-color="#fbae3c" stop-opacity="1"></stop></linearGradient></defs><defs><linearGradient id="grad2_1" x1="0%" y1="100%" x2="66.7%" y2="0%"><stop offset="20%" stop-color="#e1685e" stop-opacity="1"></stop><stop offset="80%" stop-color="#fbae3c" stop-opacity="1"></stop></linearGradient></defs><defs><linearGradient id="grad2_2" x1="0%" y1="100%" x2="66.7%" y2="0%"><stop offset="20%" stop-color="#e1685e" stop-opacity="1"></stop><stop offset="80%" stop-color="#96446e" stop-opacity="1"></stop></linearGradient></defs><defs><linearGradient id="grad2_3" x1="0%" y1="100%" x2="66.7%" y2="0%"><stop offset="20%" stop-color="#3d3056" stop-opacity="1"></stop><stop offset="80%" stop-color="#96446e" stop-opacity="1"></stop></linearGradient></defs><defs><linearGradient id="grad2_4" x1="0%" y1="100%" x2="66.7%" y2="0%"><stop offset="20%" stop-color="#3d3056" stop-opacity="1"></stop><stop offset="80%" stop-color="#001220" stop-opacity="1"></stop></linearGradient></defs><g transform="translate(900, 600)"><path d="M-432.7 0C-405.4 -66.1 -378.2 -132.1 -345.5 -199.5C-312.9 -266.9 -274.8 -335.6 -216.3 -374.7C-157.8 -413.8 -78.9 -423.2 0 -432.7L0 0Z" fill="#18223c"></path><path d="M-346.1 0C-324.3 -52.8 -302.6 -105.7 -276.4 -159.6C-250.3 -213.5 -219.9 -268.5 -173.1 -299.8C-126.3 -331 -63.1 -338.6 0 -346.1L0 0Z" fill="#683a67"></path><path d="M-259.6 0C-243.3 -39.6 -226.9 -79.3 -207.3 -119.7C-187.7 -160.1 -164.9 -201.4 -129.8 -224.8C-94.7 -248.3 -47.4 -253.9 0 -259.6L0 0Z" fill="#c0526a"></path><path d="M-173.1 0C-162.2 -26.4 -151.3 -52.8 -138.2 -79.8C-125.2 -106.8 -109.9 -134.2 -86.5 -149.9C-63.1 -165.5 -31.6 -169.3 0 -173.1L0 0Z" fill="#f6884d"></path><path d="M-86.5 0C-81.1 -13.2 -75.6 -26.4 -69.1 -39.9C-62.6 -53.4 -55 -67.1 -43.3 -74.9C-31.6 -82.8 -15.8 -84.6 0 -86.5L0 0Z" fill="#fbae3c"></path></g><g transform="translate(0, 0)"><path d="M432.7 0C411.9 69.8 391.1 139.6 357.7 206.5C324.2 273.4 278.1 337.5 216.3 374.7C154.6 411.9 77.3 422.3 0 432.7L0 0Z" fill="#18223c"></path><path d="M346.1 0C329.5 55.8 312.9 111.7 286.1 165.2C259.4 218.7 222.4 270 173.1 299.8C123.7 329.5 61.8 337.8 0 346.1L0 0Z" fill="#683a67"></path><path d="M259.6 0C247.1 41.9 234.7 83.7 214.6 123.9C194.5 164.1 166.8 202.5 129.8 224.8C92.8 247.2 46.4 253.4 0 259.6L0 0Z" fill="#c0526a"></path><path d="M173.1 0C164.8 27.9 156.5 55.8 143.1 82.6C129.7 109.4 111.2 135 86.5 149.9C61.8 164.8 30.9 168.9 0 173.1L0 0Z" fill="#f6884d"></path><path d="M86.5 0C82.4 14 78.2 27.9 71.5 41.3C64.8 54.7 55.6 67.5 43.3 74.9C30.9 82.4 15.5 84.5 0 86.5L0 0Z" fill="#fbae3c"></path></g></svg>