<svg id="visual" viewBox="0 0 900 600" width="900" height="600" xmlns="http://www.w3.org/2000/svg" xmlns:xlink="http://www.w3.org/1999/xlink" version="1.1"><rect x="0" y="0" width="900" height="600" fill="#001220"></rect><path d="M0 388L21.5 383.8C43 379.7 86 371.3 128.8 373.7C171.7 376 214.3 389 257.2 402.2C300 415.3 343 428.7 385.8 428.3C428.7 428 471.3 414 514.2 407.7C557 401.3 600 402.7 642.8 407.5C685.7 412.3 728.3 420.7 771.2 425.7C814 430.7 857 432.3 878.5 433.2L900 434L900 601L878.5 601C857 601 814 601 771.2 601C728.3 601 685.7 601 642.8 601C600 601 557 601 514.2 601C471.3 601 428.7 601 385.8 601C343 601 300 601 257.2 601C214.3 601 171.7 601 128.8 601C86 601 43 601 21.5 601L0 601Z" fill="#fa7268"></path><path d="M0 428L21.5 425.5C43 423 86 418 128.8 417.3C171.7 416.7 214.3 420.3 257.2 420.3C300 420.3 343 416.7 385.8 419.2C428.7 421.7 471.3 430.3 514.2 436.8C557 443.3 600 447.7 642.8 440.8C685.7 434 728.3 416 771.2 407C814 398 857 398 878.5 398L900 398L900 601L878.5 601C857 601 814 601 771.2 601C728.3 601 685.7 601 642.8 601C600 601 557 601 514.2 601C471.3 601 428.7 601 385.8 601C343 601 300 601 257.2 601C214.3 601 171.7 601 128.8 601C86 601 43 601 21.5 601L0 601Z" fill="#ef5f67"></path><path d="M0 492L21.5 494.5C43 497 86 502 128.8 502.7C171.7 503.3 214.3 499.7 257.2 490.7C300 481.7 343 467.3 385.8 459.7C428.7 452 471.3 451 514.2 453.3C557 455.7 600 461.3 642.8 467.8C685.7 474.3 728.3 481.7 771.2 479.8C814 478 857 467 878.5 461.5L900 456L900 601L878.5 601C857 601 814 601 771.2 601C728.3 601 685.7 601 642.8 601C600 601 557 601 514.2 601C471.3 601 428.7 601 385.8 601C343 601 300 601 257.2 601C214.3 601 171.7 601 128.8 601C86 601 43 601 21.5 601L0 601Z" fill="#e34c67"></path><path d="M0 502L21.5 504.2C43 506.3 86 510.7 128.8 514.8C171.7 519 214.3 523 257.2 525.3C300 527.7 343 528.3 385.8 521C428.7 513.7 471.3 498.3 514.2 500C557 501.7 600 520.3 642.8 524C685.7 527.7 728.3 516.3 771.2 510.3C814 504.3 857 503.7 878.5 503.3L900 503L900 601L878.5 601C857 601 814 601 771.2 601C728.3 601 685.7 601 642.8 601C600 601 557 601 514.2 601C471.3 601 428.7 601 385.8 601C343 601 300 601 257.2 601C214.3 601 171.7 601 128.8 601C86 601 43 601 21.5 601L0 601Z" fill="#d53867"></path><path d="M0 554L21.5 552.5C43 551 86 548 128.8 546.5C171.7 545 214.3 545 257.2 544.7C300 544.3 343 543.7 385.8 540.8C428.7 538 471.3 533 514.2 531.3C557 529.7 600 531.3 642.8 534.3C685.7 537.3 728.3 541.7 771.2 544C814 546.3 857 546.7 878.5 546.8L900 547L900 601L878.5 601C857 601 814 601 771.2 601C728.3 601 685.7 601 642.8 601C600 601 557 601 514.2 601C471.3 601 428.7 601 385.8 601C343 601 300 601 257.2 601C214.3 601 171.7 601 128.8 601C86 601 43 601 21.5 601L0 601Z" fill="#c62368"></path></svg>